<svg id="Icons" height="512" viewBox="0 0 74 74" width="512" xmlns="http://www.w3.org/2000/svg"><path d="m37 53a47.326 47.326 0 0 1 -34.729-15.315 1 1 0 0 1 0-1.37 47.034 47.034 0 0 1 69.458 0 1 1 0 0 1 0 1.37 47.326 47.326 0 0 1 -34.729 15.315zm-32.616-16a44.993 44.993 0 0 0 65.232 0 44.993 44.993 0 0 0 -65.232 0z"/><path d="m37 53a16 16 0 1 1 16-16 16.019 16.019 0 0 1 -16 16zm0-30a14 14 0 1 0 14 14 14.015 14.015 0 0 0 -14-14z"/><path d="m37 45a8 8 0 1 1 8-8 8.009 8.009 0 0 1 -8 8zm0-14a6 6 0 1 0 6 6 6.006 6.006 0 0 0 -6-6z"/></svg>